<svg xmlns="http://www.w3.org/2000/svg" width="1600" height="950" viewBox="0 0 1600 950" role="img" aria-labelledby="title desc">
  <title id="title">Abstract land surveying job-site placeholder</title>
  <desc id="desc">Layered topographic lines, survey tripod silhouette, and warm horizon gradient for Probeck Land Surveyors.</desc>
  <defs>
    <linearGradient id="sky" x1="0" x2="1" y1="0" y2="1">
      <stop offset="0" stop-color="#244f68"/>
      <stop offset="0.54" stop-color="#1c433d"/>
      <stop offset="1" stop-color="#d9822b"/>
    </linearGradient>
    <radialGradient id="sun" cx="72%" cy="39%" r="34%">
      <stop offset="0" stop-color="#f2b36a" stop-opacity=".85"/>
      <stop offset="1" stop-color="#f2b36a" stop-opacity="0"/>
    </radialGradient>
    <pattern id="grid" width="80" height="80" patternUnits="userSpaceOnUse">
      <path d="M80 0H0v80" fill="none" stroke="#ffffff" stroke-opacity=".14" stroke-width="1"/>
    </pattern>
  </defs>
  <rect width="1600" height="950" fill="url(#sky)"/>
  <rect width="1600" height="950" fill="url(#sun)"/>
  <rect width="1600" height="950" fill="url(#grid)" opacity=".55"/>
  <g fill="none" stroke="#fff" stroke-opacity=".22" stroke-width="3">
    <path d="M-40 700c180-80 290-20 455-65 170-47 220-150 430-100 192 46 260 160 472 95 132-40 218-116 350-88"/>
    <path d="M-40 760c160-75 310-15 470-62 170-49 242-145 425-104 200 45 283 161 485 102 132-39 214-117 346-92"/>
    <path d="M-40 820c160-64 314-8 475-53 170-48 236-134 423-94 198 43 292 145 483 94 142-38 220-108 344-84"/>
    <path d="M-40 880c180-54 300 3 462-38 190-48 246-118 438-81 205 39 308 120 484 81 134-30 220-92 344-72"/>
  </g>
  <g transform="translate(1080 435)" fill="none" stroke="#fff" stroke-linecap="round" stroke-linejoin="round">
    <path d="M0 0h130l-18 55H18z" fill="#10212f" fill-opacity=".58" stroke-width="6"/>
    <path d="M65 55v70" stroke-width="8"/>
    <path d="M65 125 10 350M65 125l55 350M65 125v350" stroke-width="9" stroke-opacity=".7"/>
    <circle cx="65" cy="-10" r="25" fill="#d9822b" fill-opacity=".78" stroke-width="6"/>
  </g>
</svg>