<svg xmlns="http://www.w3.org/2000/svg" width="1440" height="810" viewBox="0 0 1440 810" role="img" aria-labelledby="title desc">
<title id="title">Dramatic aerial surveying placeholder</title>
<desc id="desc">Dark cinematic aerial land parcel placeholder with subtle survey grid and property-line traces.</desc>
<defs>
  <linearGradient id="night" x1="0" y1="0" x2="1" y2="1"><stop offset="0" stop-color="#05070a"/><stop offset=".55" stop-color="#0d1419"/><stop offset="1" stop-color="#1b160e"/></linearGradient>
  <radialGradient id="glow" cx="76%" cy="38%" r="42%"><stop offset="0" stop-color="#d59a3a" stop-opacity=".36"/><stop offset="1" stop-color="#d59a3a" stop-opacity="0"/></radialGradient>
  <pattern id="grid" width="80" height="80" patternUnits="userSpaceOnUse"><path d="M80 0H0v80" fill="none" stroke="#f4f7f8" stroke-opacity=".055"/></pattern>
  <filter id="soft"><feGaussianBlur stdDeviation="22"/></filter>
</defs>
<rect width="1440" height="810" fill="url(#night)"/>
<rect width="1440" height="810" fill="url(#glow)"/>
<rect width="1440" height="810" fill="url(#grid)" opacity=".8"/>
<g fill="none" stroke="#d59a3a" stroke-opacity=".45" stroke-width="2">
  <path d="M60 560 350 476 610 536 890 454 1370 520"/>
  <path d="M140 650 420 580 665 640 990 548 1320 600" stroke-opacity=".25"/>
  <path d="M190 350 410 290 560 330 760 270 1140 340 1320 300" stroke-opacity=".18"/>
</g>
<g fill="none" stroke="#f4f7f8" stroke-opacity=".12" stroke-width="1.5">
  <path d="M0 650c150-80 287-76 420-18 142 62 260 54 406-22 174-90 312-62 614 18"/>
  <path d="M0 720c180-68 310-52 430 4 130 60 260 56 398-14 182-92 328-68 612 22"/>
  <path d="M0 790c190-54 306-24 428 24 148 58 276 30 426-28 170-66 338-50 586 40"/>
</g>
<g opacity=".65"><circle cx="1110" cy="285" r="190" fill="#d59a3a" opacity=".06" filter="url(#soft)"/></g>
<g fill="#f4f7f8" opacity=".14"><path d="M0 650 260 600 530 650 820 588 1080 630 1440 585v225H0z"/></g>
</svg>