<svg xmlns="http://www.w3.org/2000/svg" width="1440" height="810" viewBox="0 0 1440 810" role="img" aria-labelledby="title desc">
<title id="title">Construction survey placeholder</title>
<desc id="desc">Dark construction site placeholder with survey stakes and distant structures.</desc>
<defs>
  <linearGradient id="night" x1="0" y1="0" x2="1" y2="1"><stop offset="0" stop-color="#05070a"/><stop offset=".55" stop-color="#0d1419"/><stop offset="1" stop-color="#1b160e"/></linearGradient>
  <radialGradient id="glow" cx="76%" cy="38%" r="42%"><stop offset="0" stop-color="#d59a3a" stop-opacity=".36"/><stop offset="1" stop-color="#d59a3a" stop-opacity="0"/></radialGradient>
  <pattern id="grid" width="80" height="80" patternUnits="userSpaceOnUse"><path d="M80 0H0v80" fill="none" stroke="#f4f7f8" stroke-opacity=".055"/></pattern>
  <filter id="soft"><feGaussianBlur stdDeviation="22"/></filter>
</defs>
<rect width="1440" height="810" fill="url(#night)"/>
<rect width="1440" height="810" fill="url(#glow)"/>
<rect width="1440" height="810" fill="url(#grid)" opacity=".8"/>
<path d="M0 560c220-110 430-96 650-60 265 44 475 70 790-50v360H0z" fill="#121a20" opacity=".86"/>
<g stroke="#d59a3a" stroke-width="5" stroke-linecap="round"><path d="M280 520v150M278 520l-38 42M282 520l38 42"/><path d="M420 575v116M418 575l-32 34M422 575l32 34"/><path d="M1120 500v178M1118 500l-42 48M1122 500l42 48"/></g>
<g fill="#f4f7f8" opacity=".12"><rect x="820" y="360" width="240" height="26" rx="4"/><rect x="870" y="310" width="28" height="90"/><rect x="990" y="292" width="28" height="108"/><path d="M650 430h220l-46 96H600z"/></g>
<path d="M0 650h1440" stroke="#d59a3a" stroke-opacity=".25" stroke-width="2"/>
</svg>