<svg xmlns="http://www.w3.org/2000/svg" width="1440" height="810" viewBox="0 0 1440 810" role="img" aria-labelledby="title desc">
<title id="title">Residential parcel placeholder</title>
<desc id="desc">Dark aerial residential neighborhood placeholder with subtle parcel boundary overlays.</desc>
<defs>
  <linearGradient id="night" x1="0" y1="0" x2="1" y2="1"><stop offset="0" stop-color="#05070a"/><stop offset=".55" stop-color="#0d1419"/><stop offset="1" stop-color="#1b160e"/></linearGradient>
  <radialGradient id="glow" cx="76%" cy="38%" r="42%"><stop offset="0" stop-color="#d59a3a" stop-opacity=".36"/><stop offset="1" stop-color="#d59a3a" stop-opacity="0"/></radialGradient>
  <pattern id="grid" width="80" height="80" patternUnits="userSpaceOnUse"><path d="M80 0H0v80" fill="none" stroke="#f4f7f8" stroke-opacity=".055"/></pattern>
  <filter id="soft"><feGaussianBlur stdDeviation="22"/></filter>
</defs>
<rect width="1440" height="810" fill="url(#night)"/>
<rect width="1440" height="810" fill="url(#glow)"/>
<rect width="1440" height="810" fill="url(#grid)" opacity=".8"/>
<g transform="rotate(-14 720 405)" fill="none" stroke="#f4f7f8" stroke-opacity=".13" stroke-width="3">
  <path d="M100 160h1240M100 310h1240M100 460h1240M100 610h1240"/>
  <path d="M180 80v640M360 80v640M540 80v640M720 80v640M900 80v640M1080 80v640M1260 80v640"/>
</g>
<g transform="rotate(-14 720 405)" fill="#101820" stroke="#d59a3a" stroke-opacity=".34" stroke-width="1.5">
  <rect x="220" y="190" width="105" height="74"/><rect x="410" y="340" width="130" height="82"/><rect x="625" y="190" width="120" height="76"/><rect x="805" y="490" width="150" height="84"/><rect x="1010" y="336" width="122" height="80"/><rect x="1170" y="194" width="116" height="78"/>
</g>
<g stroke="#d59a3a" stroke-opacity=".55" stroke-width="2" fill="none"><path d="M120 580 560 480 990 560 1340 430"/><path d="M160 305 470 365 790 285 1280 350" stroke-opacity=".25"/></g>
</svg>